<svg width="684" height="504" fill="none" xmlns="http://www.w3.org/2000/svg"><path fill-rule="evenodd" clip-rule="evenodd" d="M137.695 183v171.89h-.194v.11l-.088-.11H.194l68.61-85.769L0 183.11h137.501v.133l.194-.243zM546 355V183.11h.194V183l.089.11h137.218l-68.609 85.769 68.803 86.011H546.194v-.133L546 355z" fill="#B69649"/><path fill="#F2D965" d="M123 198h438v191H123z"/><path d="M214.448 281h-11.132v-1.276a13.369 13.369 0 013.608-1.056v-26.092a57.46 57.46 0 01-1.804-.484 18.588 18.588 0 01-1.804-.616V250.2h11.132v1.276c-.469.235-.968.44-1.496.616s-1.129.337-1.804.484v19.096l-.484 3.3 2.112-3.476 12.892-17.864v-1.056a31.452 31.452 0 01-1.936-.484 32.768 32.768 0 01-1.628-.616V250.2h11.176v1.276c-.528.235-1.1.44-1.716.616-.616.176-1.246.337-1.892.484v26.092c1.379.235 2.582.587 3.608 1.056V281h-11.176v-1.276c.47-.205.983-.396 1.54-.572a10.827 10.827 0 011.804-.484v-19.052l.44-3.3-1.936 3.3-13.068 18.084v.968c.675.117 1.306.264 1.892.44.616.176 1.174.381 1.672.616V281zm50.876-2.288c0 .587-.03 1.276-.088 2.068a80.639 80.639 0 01-.22 2.376 61.174 61.174 0 01-.308 2.42 55.515 55.515 0 01-.264 2.068H263.3L261.452 281H239.76l-1.848 6.644h-1.1a18.901 18.901 0 01-.396-2.024 325.57 325.57 0 01-.264-2.464c-.059-.821-.118-1.613-.176-2.376a28.28 28.28 0 01-.088-2.068h3.652c.762-1.232 1.481-2.801 2.156-4.708.674-1.936 1.246-4.048 1.716-6.336a76.361 76.361 0 001.188-7.304c.293-2.552.44-5.075.44-7.568a32.402 32.402 0 01-2.288-.528 16.383 16.383 0 01-2.2-.792V250.2h23.364v1.276c-.499.205-1.042.411-1.628.616-.587.176-1.247.337-1.98.484v26.136h5.016zm-9.24 0v-26.224h-8.492c-.176 3.608-.47 6.835-.88 9.68-.382 2.816-.836 5.309-1.364 7.48-.499 2.141-1.027 3.96-1.584 5.456-.528 1.496-1.012 2.699-1.452 3.608h13.772zm33.377-28.512a73.888 73.888 0 01-.176 3.564 50.144 50.144 0 01-.308 3.564h-1.144l-1.804-4.84h-9.592v11.66h7.172l1.716-3.256h1.1a74.866 74.866 0 010 8.888h-1.1l-1.716-3.344h-7.172v12.276h10.12l2.156-5.28h1.1a39.55 39.55 0 01.44 3.74c.088 1.261.103 2.537.044 3.828h-21.692v-1.276c1.027-.469 2.229-.821 3.608-1.056v-26.092a22.786 22.786 0 01-1.804-.44 32.258 32.258 0 01-1.804-.66V250.2h20.856zm14.565 30.8h-9.768v-1.276a16.781 16.781 0 013.168-1.056l11.132-28.996h1.276l11.132 28.996a28.74 28.74 0 011.716.396c.587.147 1.13.367 1.628.66V281h-11.264v-1.276c.587-.235 1.188-.44 1.804-.616a22.893 22.893 0 011.804-.44l-2.992-8.052h-10.516l-2.904 8.052c1.232.176 2.494.528 3.784 1.056V281zm0-12.672h8.888L309.438 259l-.836-3.784h-.088l-1.1 3.872-3.388 9.24zm30.432-15.532c-1.818-.293-3.314-.733-4.488-1.32V250.2h23.144v1.276c-1.026.528-2.229.895-3.608 1.1v26.092c1.379.235 2.582.587 3.608 1.056V281h-11.176v-1.276a10.731 10.731 0 011.628-.572c.558-.176 1.13-.337 1.716-.484v-26.18h-8.228c-.117 4.605-.337 8.433-.66 11.484-.293 3.021-.674 5.529-1.144 7.524-.469 1.965-1.012 3.535-1.628 4.708a18.834 18.834 0 01-1.936 3.124A5.184 5.184 0 01329.53 281c-.85.352-1.672.528-2.464.528a6.1 6.1 0 01-.66-.968c-.205-.44-.41-.895-.616-1.364a16.393 16.393 0 01-.44-1.452 8.952 8.952 0 01-.22-1.32l.66-1.1 5.06.924c.44-.733.866-1.701 1.276-2.904.44-1.203.822-2.728 1.144-4.576.352-1.877.631-4.121.836-6.732.235-2.611.352-5.691.352-9.24zM356.999 281v-1.276a12.768 12.768 0 013.608-1.056v-26.092a22.786 22.786 0 01-1.804-.44 31.97 31.97 0 01-1.804-.66V250.2h11.704v1.276c-.528.235-1.13.455-1.804.66-.646.176-1.335.323-2.068.44v10.076a58.729 58.729 0 011.936-.176 17.878 17.878 0 012.024-.132c1.466 0 2.889.132 4.268.396 1.378.264 2.596.733 3.652 1.408 1.056.675 1.906 1.599 2.552 2.772.645 1.173.968 2.669.968 4.488 0 1.731-.338 3.212-1.012 4.444a9.07 9.07 0 01-2.684 2.992c-1.115.792-2.406 1.379-3.872 1.76a18.81 18.81 0 01-4.488.528c-.147 0-.44-.015-.88-.044-.411 0-.895-.015-1.452-.044-.528 0-1.086-.015-1.672-.044h-7.172zm10.868-16.368c-.734 0-1.32.015-1.76.044-.44 0-.866.059-1.276.176v13.816c.146.059.352.103.616.132.293 0 .601.015.924.044h1.584a9.42 9.42 0 002.904-.44 6.712 6.712 0 002.376-1.32c.704-.616 1.261-1.393 1.672-2.332.41-.939.616-2.068.616-3.388 0-2.376-.69-4.092-2.068-5.148-1.35-1.056-3.212-1.584-5.588-1.584zM395.661 281h-11.132v-1.276a19.603 19.603 0 013.608-1.056v-26.092c-1.378-.205-2.581-.572-3.608-1.1V250.2h11.132v1.276a9.429 9.429 0 01-1.584.66c-.557.176-1.129.323-1.716.44v11.484h13.816v-11.484a25.623 25.623 0 01-1.76-.484 14.002 14.002 0 01-1.54-.616V250.2h11.132v1.276a7.88 7.88 0 01-1.76.704c-.616.147-1.232.279-1.848.396v26.092c.675.117 1.32.264 1.936.44.616.176 1.174.381 1.672.616V281h-11.132v-1.276a16.074 16.074 0 013.3-1.056v-12.32h-13.816v12.32c.587.117 1.159.264 1.716.44.558.176 1.086.381 1.584.616V281zm56.784 0h-11.176v-1.276a8.992 8.992 0 011.716-.66 28.74 28.74 0 011.716-.396v-26.092a140.37 140.37 0 00-1.716-.44 8.992 8.992 0 01-1.716-.66V250.2h11.176v1.276c-.968.469-2.141.836-3.52 1.1v26.092a13.58 13.58 0 011.936.44c.557.176 1.085.381 1.584.616V281zm-34.584 0v-1.276a12.778 12.778 0 013.608-1.056v-26.092a56.733 56.733 0 01-1.804-.484 18.588 18.588 0 01-1.804-.616V250.2h11.704v1.276c-.557.235-1.159.455-1.804.66-.645.176-1.335.323-2.068.44v10.076a58.729 58.729 0 011.936-.176 17.893 17.893 0 012.024-.132c1.437 0 2.816.132 4.136.396 1.32.264 2.479.733 3.476 1.408.997.675 1.789 1.599 2.376 2.772.616 1.173.924 2.669.924 4.488 0 1.731-.337 3.212-1.012 4.444a9.269 9.269 0 01-2.64 2.992c-1.085.792-2.317 1.379-3.696 1.76a16.835 16.835 0 01-4.18.528c-.147 0-.44-.015-.88-.044-.411 0-.88-.015-1.408-.044-.528 0-1.085-.015-1.672-.044h-7.216zm10.824-16.368c-.704 0-1.291.015-1.76.044-.44 0-.851.059-1.232.176v13.816c.147.059.352.103.616.132.293 0 .587.015.88.044h1.628c2.053 0 3.74-.616 5.06-1.848 1.32-1.232 1.98-3.109 1.98-5.632 0-2.2-.601-3.872-1.804-5.016-1.203-1.144-2.992-1.716-5.368-1.716zm48.477-14.432a73.888 73.888 0 01-.176 3.564 50.144 50.144 0 01-.308 3.564h-1.144l-1.804-4.84h-9.592v11.66h7.172l1.716-3.256h1.1a74.866 74.866 0 010 8.888h-1.1l-1.716-3.344h-7.172v12.276h10.12l2.156-5.28h1.1a39.55 39.55 0 01.44 3.74c.088 1.261.103 2.537.044 3.828h-21.692v-1.276c1.027-.469 2.229-.821 3.608-1.056v-26.092a22.786 22.786 0 01-1.804-.44 32.258 32.258 0 01-1.804-.66V250.2h20.856zM179.309 339h-9.768v-1.276a16.781 16.781 0 013.168-1.056l11.132-28.996h1.276l11.132 28.996c.586.117 1.158.249 1.716.396a6.154 6.154 0 011.628.66V339h-11.264v-1.276c.586-.235 1.188-.44 1.804-.616a22.786 22.786 0 011.804-.44l-2.992-8.052h-10.516l-2.904 8.052c1.232.176 2.493.528 3.784 1.056V339zm0-12.672h8.888L184.721 317l-.836-3.784h-.088l-1.1 3.872-3.388 9.24zM213.304 339h-11.132v-1.276c.44-.235.953-.44 1.54-.616a14.767 14.767 0 012.068-.44v-26.092a22.786 22.786 0 01-1.804-.44 31.97 31.97 0 01-1.804-.66V308.2h29.04v1.276a9.225 9.225 0 01-1.76.704c-.616.147-1.232.279-1.848.396v26.092c1.173.147 2.376.499 3.608 1.056V339H220.08v-1.276c.645-.411 1.745-.763 3.3-1.056v-26.18h-13.376v26.18c1.144.235 2.244.587 3.3 1.056V339zm30.262 0h-9.768v-1.276a16.781 16.781 0 013.168-1.056l11.132-28.996h1.276l11.132 28.996c.586.117 1.158.249 1.716.396a6.154 6.154 0 011.628.66V339h-11.264v-1.276c.586-.235 1.188-.44 1.804-.616a22.786 22.786 0 011.804-.44l-2.992-8.052h-10.516l-2.904 8.052c1.232.176 2.493.528 3.784 1.056V339zm0-12.672h8.888L248.978 317l-.836-3.784h-.088l-1.1 3.872-3.388 9.24zm30.695 10.34c.792.088 1.54.235 2.244.44.704.176 1.364.381 1.98.616V339h-12.056v-1.276a8.39 8.39 0 011.804-.66 49.252 49.252 0 011.804-.396v-26.092a16.252 16.252 0 01-1.892-.44 29.068 29.068 0 01-1.716-.66V308.2h3.96c1.173 0 2.449-.059 3.828-.176a46.908 46.908 0 013.96-.176c1.437 0 2.845.161 4.224.484 1.379.293 2.596.807 3.652 1.54 1.085.733 1.951 1.716 2.596 2.948.675 1.203 1.012 2.713 1.012 4.532 0 1.731-.337 3.212-1.012 4.444a8.758 8.758 0 01-2.728 3.036c-1.115.792-2.391 1.379-3.828 1.76a18.615 18.615 0 01-4.444.528h-1.672c-.352-.029-.689-.059-1.012-.088a7.428 7.428 0 01-.704-.088v9.724zm2.992-26.532c-.704 0-1.276.015-1.716.044-.44.029-.865.088-1.276.176v14.256c.147.059.352.103.616.132.293 0 .587.015.88.044.323.029.631.044.924.044h.704c1.027 0 1.995-.132 2.904-.396a6.382 6.382 0 002.376-1.364c.704-.616 1.261-1.393 1.672-2.332.411-.939.616-2.068.616-3.388 0-2.405-.689-4.209-2.068-5.412-1.349-1.203-3.227-1.804-5.632-1.804zM312.484 339H300.12v-1.276c.645-.235 1.291-.44 1.936-.616a21.405 21.405 0 012.156-.44v-26.18h-6.732l-2.332 6.292h-1.1a29.359 29.359 0 01-.22-1.98l-.176-2.288c-.029-.792-.059-1.555-.088-2.288a54.055 54.055 0 01-.044-2.024h25.564c0 .587-.015 1.247-.044 1.98a65.917 65.917 0 01-.132 2.288 58.462 58.462 0 01-.132 2.288 19.944 19.944 0 01-.176 2.024h-1.144l-2.288-6.292h-6.732v26.18c.763.147 1.467.293 2.112.44.675.147 1.32.352 1.936.616V339zm14.964 0h-9.768v-1.276a16.781 16.781 0 013.168-1.056l11.132-28.996h1.276l11.132 28.996c.586.117 1.158.249 1.716.396a6.154 6.154 0 011.628.66V339h-11.264v-1.276c.586-.235 1.188-.44 1.804-.616a22.786 22.786 0 011.804-.44l-2.992-8.052h-10.516l-2.904 8.052c1.232.176 2.493.528 3.784 1.056V339zm0-12.672h8.888L332.86 317l-.836-3.784h-.088l-1.1 3.872-3.388 9.24zM385.863 339h-10.912v-1.276a13.655 13.655 0 011.76-.572 32.74 32.74 0 011.804-.484v-19.8l.176-5.148h-.352l-1.452 4.708-9.02 22.572h-1.144l-8.58-22.572-1.584-5.148h-.396l.044 5.588v19.8c.557.117 1.115.264 1.672.44.557.176 1.115.381 1.672.616V339h-9.196v-1.276c.557-.235 1.129-.44 1.716-.616a14.304 14.304 0 011.848-.484v-26.048a20.968 20.968 0 01-1.848-.44 41.932 41.932 0 01-1.76-.66V308.2h9.02l7.656 20.108 1.496 4.532h.044l1.496-4.62 7.92-20.02h7.964v1.276c-.528.235-1.071.455-1.628.66-.557.176-1.129.323-1.716.44v26.136c.616.117 1.188.264 1.716.44a9.245 9.245 0 011.584.572V339zm24.78-30.8a73.888 73.888 0 01-.176 3.564 50.144 50.144 0 01-.308 3.564h-1.144l-1.804-4.84h-9.592v11.66h7.172l1.716-3.256h1.1a74.866 74.866 0 010 8.888h-1.1l-1.716-3.344h-7.172v12.276h10.12l2.156-5.28h1.1a39.55 39.55 0 01.44 3.74c.088 1.261.103 2.537.044 3.828h-21.692v-1.276c1.027-.469 2.229-.821 3.608-1.056v-26.092a22.786 22.786 0 01-1.804-.44 32.258 32.258 0 01-1.804-.66V308.2h20.856zm17.205 30.8h-11.132v-1.276a19.603 19.603 0 013.608-1.056v-26.092c-1.378-.205-2.581-.572-3.608-1.1V308.2h11.132v1.276a9.429 9.429 0 01-1.584.66c-.557.176-1.129.323-1.716.44v11.484h13.816v-11.484a25.623 25.623 0 01-1.76-.484 14.002 14.002 0 01-1.54-.616V308.2h11.132v1.276a7.88 7.88 0 01-1.76.704c-.616.147-1.232.279-1.848.396v26.092c.675.117 1.32.264 1.936.44.616.176 1.174.381 1.672.616V339h-11.132v-1.276a16.074 16.074 0 013.3-1.056v-12.32h-13.816v12.32c.587.117 1.159.264 1.716.44.558.176 1.086.381 1.584.616V339zm40.724 0h-12.364v-1.276c.646-.235 1.291-.44 1.936-.616a21.462 21.462 0 012.156-.44v-26.18h-6.732l-2.332 6.292h-1.1a29.359 29.359 0 01-.22-1.98l-.176-2.288c-.029-.792-.058-1.555-.088-2.288a54.055 54.055 0 01-.044-2.024h25.564c0 .587-.014 1.247-.044 1.98a65.917 65.917 0 01-.132 2.288 58.462 58.462 0 01-.132 2.288 19.944 19.944 0 01-.176 2.024h-1.144l-2.288-6.292h-6.732v26.18c.763.147 1.467.293 2.112.44.675.147 1.32.352 1.936.616V339zm44.622 0h-11.176v-1.276a8.992 8.992 0 011.716-.66c.558-.147 1.13-.279 1.716-.396v-26.092a140.37 140.37 0 00-1.716-.44 8.992 8.992 0 01-1.716-.66V308.2h11.176v1.276c-.968.469-2.141.836-3.52 1.1v26.092c.734.117 1.379.264 1.936.44.558.176 1.086.381 1.584.616V339zm-34.584 0v-1.276a12.778 12.778 0 013.608-1.056v-26.092a57.46 57.46 0 01-1.804-.484 18.588 18.588 0 01-1.804-.616V308.2h11.704v1.276a20.93 20.93 0 01-1.804.66c-.645.176-1.334.323-2.068.44v10.076a58.984 58.984 0 011.936-.176 17.907 17.907 0 012.024-.132c1.438 0 2.816.132 4.136.396 1.32.264 2.479.733 3.476 1.408.998.675 1.79 1.599 2.376 2.772.616 1.173.924 2.669.924 4.488 0 1.731-.337 3.212-1.012 4.444a9.245 9.245 0 01-2.64 2.992c-1.085.792-2.317 1.379-3.696 1.76a16.829 16.829 0 01-4.18.528c-.146 0-.44-.015-.88-.044-.41 0-.88-.015-1.408-.044-.528 0-1.085-.015-1.672-.044h-7.216zm10.824-16.368c-.704 0-1.29.015-1.76.044-.44 0-.85.059-1.232.176v13.816c.147.059.352.103.616.132.294 0 .587.015.88.044h1.628c2.054 0 3.74-.616 5.06-1.848 1.32-1.232 1.98-3.109 1.98-5.632 0-2.2-.601-3.872-1.804-5.016-1.202-1.144-2.992-1.716-5.368-1.716z" fill="#373737"/><path d="M339.765 410.354c.599-1.843 3.206-1.843 3.805 0l9.211 28.35a5 5 0 004.755 3.455h29.809c1.937 0 2.743 2.479 1.175 3.618l-24.115 17.521a5 5 0 00-1.817 5.59l9.212 28.349c.598 1.843-1.511 3.375-3.078 2.236l-24.116-17.521a5 5 0 00-5.878 0l-24.115 17.521c-1.568 1.139-3.676-.393-3.078-2.236l9.212-28.349a5 5 0 00-1.817-5.59l-24.115-17.521c-1.568-1.139-.762-3.618 1.175-3.618h29.809a5 5 0 004.755-3.455l9.211-28.35z" fill="url(#paint0_linear_89_155)"/><path d="M438.097 427.887c.597-1.847 3.209-1.847 3.806 0l5.004 15.479a5 5 0 004.758 3.462h16.205c1.935 0 2.742 2.474 1.179 3.615l-13.14 9.596a5 5 0 00-1.809 5.576l5.017 15.519c.596 1.844-1.517 3.373-3.083 2.23l-13.085-9.555a5 5 0 00-5.898 0l-13.085 9.555c-1.566 1.143-3.679-.386-3.083-2.23l5.017-15.519a5 5 0 00-1.809-5.576l-13.14-9.596c-1.563-1.141-.756-3.615 1.179-3.615h16.205a5 5 0 004.758-3.462l5.004-15.479z" fill="url(#paint1_linear_89_155)"/><path d="M172.097 427.903c.595-1.848 3.211-1.848 3.806 0l2.645 8.202a5 5 0 004.759 3.465h8.575c1.934 0 2.742 2.472 1.182 3.614l-6.984 5.113a5 5 0 00-1.805 5.569l2.664 8.262c.595 1.845-1.52 3.373-3.085 2.227l-6.9-5.052a5.003 5.003 0 00-5.908 0l-6.9 5.052c-1.565 1.146-3.68-.382-3.085-2.227l2.664-8.262a5 5 0 00-1.805-5.569l-6.984-5.113c-1.56-1.142-.752-3.614 1.182-3.614h8.575a5 5 0 004.759-3.465l2.645-8.202z" fill="url(#paint2_linear_89_155)"/><path d="M508.097 427.903c.595-1.848 3.211-1.848 3.806 0l2.645 8.202a5 5 0 004.759 3.465h8.575c1.934 0 2.742 2.472 1.182 3.614l-6.984 5.113a5 5 0 00-1.805 5.569l2.664 8.262c.595 1.845-1.52 3.373-3.085 2.227l-6.9-5.052a5.003 5.003 0 00-5.908 0l-6.9 5.052c-1.565 1.146-3.68-.382-3.085-2.227l2.664-8.262a5 5 0 00-1.805-5.569l-6.984-5.113c-1.56-1.142-.752-3.614 1.182-3.614h8.575a5 5 0 004.759-3.465l2.645-8.202z" fill="url(#paint3_linear_89_155)"/><path d="M242.097 427.887c.597-1.847 3.209-1.847 3.806 0l5.004 15.479a5 5 0 004.758 3.462h16.205c1.935 0 2.742 2.474 1.179 3.615l-13.14 9.596a5 5 0 00-1.809 5.576l5.017 15.519c.596 1.844-1.517 3.373-3.083 2.23l-13.085-9.555a5 5 0 00-5.898 0l-13.085 9.555c-1.566 1.143-3.679-.386-3.083-2.23l5.017-15.519a5 5 0 00-1.809-5.576l-13.14-9.596c-1.563-1.141-.756-3.615 1.179-3.615h16.205a5 5 0 004.758-3.462l5.004-15.479z" fill="url(#paint4_linear_89_155)"/><path fill-rule="evenodd" clip-rule="evenodd" d="M346.284 22.363C350.776 20.798 354 16.526 354 11.5 354 5.149 348.851 0 342.5 0S331 5.149 331 11.5c0 4.862 3.018 9.02 7.282 10.702L305.5 101.5l-65.519-31.26A11.45 11.45 0 00241 65.5c0-6.351-5.149-11.5-11.5-11.5S218 59.149 218 65.5 223.149 77 229.5 77a11.49 11.49 0 003.015-.4L249 131l13 43.5h160.5l13-43.5 16.526-54.534A11.49 11.49 0 00455.5 77c6.351 0 11.5-5.149 11.5-11.5S461.851 54 455.5 54 444 59.149 444 65.5c0 1.613.332 3.149.932 4.542L379 101.5l-32.716-79.137z" fill="url(#paint5_linear_89_155)"/><path d="M335.84 161h-19.228v-2.204a23.083 23.083 0 016.232-1.824v-45.068a96.247 96.247 0 01-3.116-.836 32.363 32.363 0 01-3.116-1.064V107.8h19.228v2.204c-.81.405-1.672.76-2.584 1.064-.912.304-1.95.583-3.116.836v32.984l-.836 5.7 3.648-6.004 22.268-30.856v-1.824a53.534 53.534 0 01-3.344-.836 56.326 56.326 0 01-2.812-1.064V107.8h19.304v2.204c-.912.405-1.9.76-2.964 1.064a61.136 61.136 0 01-3.268.836v45.068c2.382.405 4.459 1.013 6.232 1.824V161h-19.304v-2.204a26.726 26.726 0 012.66-.988 18.683 18.683 0 013.116-.836v-32.908l.76-5.7-3.344 5.7-22.572 31.236v1.672a28.21 28.21 0 013.268.76c1.064.304 2.027.659 2.888 1.064V161z" fill="#373737"/><defs><linearGradient id="paint0_linear_89_155" x1="374" y1="396" x2="331.5" y2="396" gradientUnits="userSpaceOnUse"><stop stop-color="#F9CC5E"/><stop offset=".544" stop-color="#fff"/><stop offset="1" stop-color="#F9CC5E"/></linearGradient><linearGradient id="paint1_linear_89_155" x1="461.209" y1="416.396" x2="433.331" y2="416.396" gradientUnits="userSpaceOnUse"><stop stop-color="#F9CC5E"/><stop offset=".544" stop-color="#fff"/><stop offset="1" stop-color="#F9CC5E"/></linearGradient><linearGradient id="paint2_linear_89_155" x1="188.971" y1="418.034" x2="169.292" y2="418.034" gradientUnits="userSpaceOnUse"><stop stop-color="#F9CC5E"/><stop offset=".544" stop-color="#fff"/><stop offset="1" stop-color="#F9CC5E"/></linearGradient><linearGradient id="paint3_linear_89_155" x1="524.971" y1="418.034" x2="505.292" y2="418.034" gradientUnits="userSpaceOnUse"><stop stop-color="#F9CC5E"/><stop offset=".544" stop-color="#fff"/><stop offset="1" stop-color="#F9CC5E"/></linearGradient><linearGradient id="paint4_linear_89_155" x1="265.209" y1="416.396" x2="237.331" y2="416.396" gradientUnits="userSpaceOnUse"><stop stop-color="#F9CC5E"/><stop offset=".544" stop-color="#fff"/><stop offset="1" stop-color="#F9CC5E"/></linearGradient><linearGradient id="paint5_linear_89_155" x1="302.5" y1="74" x2="442" y2="174" gradientUnits="userSpaceOnUse"><stop stop-color="#F9CC5E"/><stop offset=".641" stop-color="#fff"/><stop offset="1" stop-color="#F9CC5E"/></linearGradient></defs></svg>