<svg width="22" height="22" viewBox="0 0 22 22" fill="none" xmlns="http://www.w3.org/2000/svg">
<g filter="url(#filter0_d_34_558)">
<path d="M10.0333 13.6083C10.0867 13.6511 10.1545 13.6717 10.2226 13.6659C10.2908 13.6601 10.3541 13.6283 10.3994 13.5771L14.6661 8.77706C14.6894 8.75088 14.7072 8.72038 14.7187 8.6873C14.7302 8.65422 14.735 8.6192 14.7329 8.58425C14.7309 8.5493 14.7219 8.51509 14.7066 8.48359C14.6914 8.45209 14.67 8.42391 14.6438 8.40066C14.6177 8.37741 14.5872 8.35954 14.5541 8.34807C14.521 8.33661 14.486 8.33177 14.451 8.33384C14.4161 8.33591 14.3819 8.34484 14.3504 8.36012C14.3189 8.37541 14.2907 8.39675 14.2674 8.42293L10.169 13.0336L7.69997 11.0584C7.64469 11.0147 7.57438 10.9947 7.5044 11.0028C7.43442 11.0108 7.37045 11.0461 7.32646 11.1012C7.28247 11.1562 7.26204 11.2264 7.26961 11.2964C7.27719 11.3664 7.31217 11.4306 7.3669 11.4749L10.0333 13.6083Z" fill="#3399CC"/>
</g>
<g filter="url(#filter1_d_34_558)">
<path d="M3 3V19H19V3H3ZM18.4667 18.4667H3.53333V3.53333H18.4667V18.4667Z" fill="#3399CC"/>
</g>
<defs>
<filter id="filter0_d_34_558" x="4.26807" y="5.33337" width="13.4653" height="11.3335" filterUnits="userSpaceOnUse" color-interpolation-filters="sRGB">
<feFlood flood-opacity="0" result="BackgroundImageFix"/>
<feColorMatrix in="SourceAlpha" type="matrix" values="0 0 0 0 0 0 0 0 0 0 0 0 0 0 0 0 0 0 127 0" result="hardAlpha"/>
<feOffset/>
<feGaussianBlur stdDeviation="1.5"/>
<feComposite in2="hardAlpha" operator="out"/>
<feColorMatrix type="matrix" values="0 0 0 0 0.2 0 0 0 0 0.6 0 0 0 0 0.8 0 0 0 1 0"/>
<feBlend mode="normal" in2="BackgroundImageFix" result="effect1_dropShadow_34_558"/>
<feBlend mode="normal" in="SourceGraphic" in2="effect1_dropShadow_34_558" result="shape"/>
</filter>
<filter id="filter1_d_34_558" x="0" y="0" width="22" height="22" filterUnits="userSpaceOnUse" color-interpolation-filters="sRGB">
<feFlood flood-opacity="0" result="BackgroundImageFix"/>
<feColorMatrix in="SourceAlpha" type="matrix" values="0 0 0 0 0 0 0 0 0 0 0 0 0 0 0 0 0 0 127 0" result="hardAlpha"/>
<feOffset/>
<feGaussianBlur stdDeviation="1.5"/>
<feComposite in2="hardAlpha" operator="out"/>
<feColorMatrix type="matrix" values="0 0 0 0 0.2 0 0 0 0 0.6 0 0 0 0 0.8 0 0 0 1 0"/>
<feBlend mode="normal" in2="BackgroundImageFix" result="effect1_dropShadow_34_558"/>
<feBlend mode="normal" in="SourceGraphic" in2="effect1_dropShadow_34_558" result="shape"/>
</filter>
</defs>
</svg>
