<?xml version="1.0" encoding="UTF-8" standalone="no"?>
<!-- Created with Inkscape (http://www.inkscape.org/) -->

<svg
   width="210mm"
   height="297mm"
   viewBox="0 0 210 297"
   version="1.1"
   id="svg1"
   xml:space="preserve"
   xmlns="http://www.w3.org/2000/svg"
   xmlns:svg="http://www.w3.org/2000/svg"><defs
     id="defs1" /><g
     id="layer1"><g
       style="fill:none"
       id="g1"
       transform="scale(0.26458333)"><path
         d="M 25,0 C 11.225,0 0,11.225 0,25 0,38.775 11.225,50 25,50 38.775,50 50,38.775 50,25 50,11.225 38.775,0 25,0 Z m 10.15,29.475 c -0.375,0.375 -0.85,0.55 -1.325,0.55 -0.475,0 -0.95,-0.175 -1.325,-0.55 l -7.5,-7.5 -7.5,7.5 c -0.725,0.725 -1.925,0.725 -2.65,0 -0.725,-0.725 -0.725,-1.925 0,-2.65 L 23.675,18 c 0.725,-0.725 1.925,-0.725 2.65,0 l 8.825,8.825 c 0.725,0.75 0.725,1.925 0,2.65 z"
         fill="#3399cc"
         id="path1" /></g></g></svg>
