


<!-- <svg width="50" height="50" viewBox="0 0 50 50" fill="none">
<path d="M 25 0 C 11.225 0 0 11.225 0 25 C 0 38.775 11.225 50 25 50 C 38.775 50 50 38.775 50 25 C 50 11.225 38.775 0 25 0 Z M 35.15 29.475 C 34.775 29.85 34.3 30.025 33.825 30.025 C 33.35 30.025 32.875 29.85 32.5 29.475 L 25 21.975 L 17.5 29.475 C 16.775 30.2 15.575 30.2 14.85 29.475 C 14.125 28.75 14.125 27.55 14.85 26.825 L 23.675 18 C 24.4 17.275 25.6 17.275 26.325 18 L 35.15 26.825 C 35.875 27.575 35.875 28.75 35.15 29.475 Z"
         fill="#3399cc"/>
</svg> -->
<svg width="50" height="50" viewBox="0 0 50 50" fill="none" >
<path d="M25 0C11.225 0 0 11.225 0 25C0 38.775 11.225 50 25 50C38.775 50 50 38.775 50 25C50 11.225 38.775 0 25 0ZM35.15 29.475C34.775 29.85 34.3 30.025 33.825 30.025C33.35 30.025 32.875 29.85 32.5 29.475L25 21.975L17.5 29.475C16.775 30.2 15.575 30.2 14.85 29.475C14.125 28.75 14.125 27.55 14.85 26.825L23.675 18C24.4 17.275 25.6 17.275 26.325 18L35.15 26.825C35.875 27.575 35.875 28.75 35.15 29.475Z" fill="#3399CC"/>
</svg>