<?xml version="1.0" encoding="UTF-8" standalone="no"?>
<!-- Created with Inkscape (http://www.inkscape.org/) -->

<svg
   width="49.999996"
   height="49.999996"
   viewBox="0 0 13.229166 13.229166"
   version="1.1"
   id="svg1"
   xml:space="preserve"
   inkscape:version="1.3 (0e150ed6c4, 2023-07-21)"
   sodipodi:docname="рисунок.svg"
   xmlns:inkscape="http://www.inkscape.org/namespaces/inkscape"
   xmlns:sodipodi="http://sodipodi.sourceforge.net/DTD/sodipodi-0.dtd"
   xmlns="http://www.w3.org/2000/svg"
   xmlns:svg="http://www.w3.org/2000/svg"><sodipodi:namedview
     id="namedview1"
     pagecolor="#ffffff"
     bordercolor="#000000"
     borderopacity="0.25"
     inkscape:showpageshadow="2"
     inkscape:pageopacity="0.0"
     inkscape:pagecheckerboard="0"
     inkscape:deskcolor="#d1d1d1"
     inkscape:document-units="mm"
     inkscape:zoom="0.73139029"
     inkscape:cx="25.294293"
     inkscape:cy="24.610663"
     inkscape:window-width="1488"
     inkscape:window-height="1040"
     inkscape:window-x="250"
     inkscape:window-y="33"
     inkscape:window-maximized="0"
     inkscape:current-layer="layer1"
     inkscape:clip-to-page="false" /><defs
     id="defs1" /><g
     inkscape:label="Слой 1"
     inkscape:groupmode="layer"
     id="layer1"
     transform="translate(-98.474942,-141.70454)"><g
       style="fill:none"
       id="g1"
       transform="matrix(0.26458333,0,0,0.26458333,98.474942,141.70454)"><path
         d="M 25,0 C 11.225,0 0,11.225 0,25 0,38.775 11.225,50 25,50 38.775,50 50,38.775 50,25 50,11.225 38.775,0 25,0 Z m 10.15,29.475 c -0.375,0.375 -0.85,0.55 -1.325,0.55 -0.475,0 -0.95,-0.175 -1.325,-0.55 l -7.5,-7.5 -7.5,7.5 c -0.725,0.725 -1.925,0.725 -2.65,0 -0.725,-0.725 -0.725,-1.925 0,-2.65 L 23.675,18 c 0.725,-0.725 1.925,-0.725 2.65,0 l 8.825,8.825 c 0.725,0.75 0.725,1.925 0,2.65 z"
         fill="#3399cc"
         id="path1" /></g></g></svg>
