<svg width="684" height="504" viewBox="0 0 684 504" fill="none" xmlns="http://www.w3.org/2000/svg">
<path fill-rule="evenodd" clip-rule="evenodd" d="M137.695 183V354.89H137.501V355L137.413 354.89H0.194275L68.8036 269.121L0 183.11H137.501V183.243L137.695 183Z" fill="#B69649"/>
<path fill-rule="evenodd" clip-rule="evenodd" d="M546 355L546 183.11L546.194 183.11L546.194 183L546.283 183.11L683.501 183.11L614.892 268.879L683.695 354.89L546.194 354.89L546.194 354.757L546 355Z" fill="#B69649"/>
<rect x="123" y="198" width="438" height="191" fill="#F2D965"/>
<path d="M214.448 281H203.316V279.724C204.49 279.196 205.692 278.844 206.924 278.668V252.576C206.338 252.429 205.736 252.268 205.12 252.092C204.504 251.916 203.903 251.711 203.316 251.476V250.2H214.448V251.476C213.979 251.711 213.48 251.916 212.952 252.092C212.424 252.268 211.823 252.429 211.148 252.576V271.672L210.664 274.972L212.776 271.496L225.668 253.632V252.576C224.994 252.429 224.348 252.268 223.732 252.092C223.146 251.887 222.603 251.681 222.104 251.476V250.2H233.28V251.476C232.752 251.711 232.18 251.916 231.564 252.092C230.948 252.268 230.318 252.429 229.672 252.576V278.668C231.051 278.903 232.254 279.255 233.28 279.724V281H222.104V279.724C222.574 279.519 223.087 279.328 223.644 279.152C224.202 278.947 224.803 278.785 225.448 278.668V259.616L225.888 256.316L223.952 259.616L210.884 277.7V278.668C211.559 278.785 212.19 278.932 212.776 279.108C213.392 279.284 213.95 279.489 214.448 279.724V281ZM265.324 278.712C265.324 279.299 265.294 279.988 265.236 280.78C265.177 281.543 265.104 282.335 265.016 283.156C264.928 283.977 264.825 284.784 264.708 285.576C264.62 286.368 264.532 287.057 264.444 287.644H263.3L261.452 281H239.76L237.912 287.644H236.812C236.665 287.087 236.533 286.412 236.416 285.62C236.328 284.828 236.24 284.007 236.152 283.156C236.093 282.335 236.034 281.543 235.976 280.78C235.917 279.988 235.888 279.299 235.888 278.712H239.54C240.302 277.48 241.021 275.911 241.696 274.004C242.37 272.068 242.942 269.956 243.412 267.668C243.91 265.351 244.306 262.916 244.6 260.364C244.893 257.812 245.04 255.289 245.04 252.796C244.277 252.649 243.514 252.473 242.752 252.268C242.018 252.063 241.285 251.799 240.552 251.476V250.2H263.916V251.476C263.417 251.681 262.874 251.887 262.288 252.092C261.701 252.268 261.041 252.429 260.308 252.576V278.712H265.324ZM256.084 278.712V252.488H247.592C247.416 256.096 247.122 259.323 246.712 262.168C246.33 264.984 245.876 267.477 245.348 269.648C244.849 271.789 244.321 273.608 243.764 275.104C243.236 276.6 242.752 277.803 242.312 278.712H256.084ZM289.461 250.2C289.432 251.373 289.373 252.561 289.285 253.764C289.226 254.937 289.124 256.125 288.977 257.328H287.833L286.029 252.488H276.437V264.148H283.609L285.325 260.892H286.425C286.601 263.796 286.601 266.759 286.425 269.78H285.325L283.609 266.436H276.437V278.712H286.557L288.713 273.432H289.813C290.018 274.664 290.165 275.911 290.253 277.172C290.341 278.433 290.356 279.709 290.297 281H268.605V279.724C269.632 279.255 270.834 278.903 272.213 278.668V252.576C271.626 252.459 271.025 252.312 270.409 252.136C269.793 251.931 269.192 251.711 268.605 251.476V250.2H289.461ZM304.026 281H294.258V279.724C295.314 279.255 296.37 278.903 297.426 278.668L308.558 249.672H309.834L320.966 278.668C321.553 278.785 322.125 278.917 322.682 279.064C323.269 279.211 323.812 279.431 324.31 279.724V281H313.046V279.724C313.633 279.489 314.234 279.284 314.85 279.108C315.466 278.932 316.068 278.785 316.654 278.668L313.662 270.616H303.146L300.242 278.668C301.474 278.844 302.736 279.196 304.026 279.724V281ZM304.026 268.328H312.914L309.438 259L308.602 255.216H308.514L307.414 259.088L304.026 268.328ZM334.458 252.796C332.64 252.503 331.144 252.063 329.97 251.476V250.2H353.114V251.476C352.088 252.004 350.885 252.371 349.506 252.576V278.668C350.885 278.903 352.088 279.255 353.114 279.724V281H341.938V279.724C342.466 279.489 343.009 279.299 343.566 279.152C344.124 278.976 344.696 278.815 345.282 278.668V252.488H337.054C336.937 257.093 336.717 260.921 336.394 263.972C336.101 266.993 335.72 269.501 335.25 271.496C334.781 273.461 334.238 275.031 333.622 276.204C333.036 277.377 332.39 278.419 331.686 279.328C331.1 280.091 330.381 280.648 329.53 281C328.68 281.352 327.858 281.528 327.066 281.528C326.861 281.293 326.641 280.971 326.406 280.56C326.201 280.12 325.996 279.665 325.79 279.196C325.614 278.697 325.468 278.213 325.35 277.744C325.233 277.245 325.16 276.805 325.13 276.424L325.79 275.324L330.85 276.248C331.29 275.515 331.716 274.547 332.126 273.344C332.566 272.141 332.948 270.616 333.27 268.768C333.622 266.891 333.901 264.647 334.106 262.036C334.341 259.425 334.458 256.345 334.458 252.796ZM356.999 281V279.724C358.143 279.196 359.345 278.844 360.607 278.668V252.576C360.02 252.459 359.419 252.312 358.803 252.136C358.187 251.931 357.585 251.711 356.999 251.476V250.2H368.703V251.476C368.175 251.711 367.573 251.931 366.899 252.136C366.253 252.312 365.564 252.459 364.831 252.576V262.652C365.359 262.593 366.004 262.535 366.767 262.476C367.529 262.388 368.204 262.344 368.791 262.344C370.257 262.344 371.68 262.476 373.059 262.74C374.437 263.004 375.655 263.473 376.711 264.148C377.767 264.823 378.617 265.747 379.263 266.92C379.908 268.093 380.231 269.589 380.231 271.408C380.231 273.139 379.893 274.62 379.219 275.852C378.544 277.055 377.649 278.052 376.535 278.844C375.42 279.636 374.129 280.223 372.663 280.604C371.225 280.956 369.729 281.132 368.175 281.132C368.028 281.132 367.735 281.117 367.295 281.088C366.884 281.088 366.4 281.073 365.843 281.044C365.315 281.044 364.757 281.029 364.171 281C363.584 281 363.071 281 362.631 281H356.999ZM367.867 264.632C367.133 264.632 366.547 264.647 366.107 264.676C365.667 264.676 365.241 264.735 364.831 264.852V278.668C364.977 278.727 365.183 278.771 365.447 278.8C365.74 278.8 366.048 278.815 366.371 278.844C366.693 278.844 367.001 278.844 367.295 278.844C367.588 278.844 367.808 278.844 367.955 278.844C368.981 278.844 369.949 278.697 370.859 278.404C371.768 278.111 372.56 277.671 373.235 277.084C373.939 276.468 374.496 275.691 374.907 274.752C375.317 273.813 375.523 272.684 375.523 271.364C375.523 268.988 374.833 267.272 373.455 266.216C372.105 265.16 370.243 264.632 367.867 264.632ZM395.661 281H384.529V279.724C385.703 279.255 386.905 278.903 388.137 278.668V252.576C386.759 252.371 385.556 252.004 384.529 251.476V250.2H395.661V251.476C395.163 251.74 394.635 251.96 394.077 252.136C393.52 252.312 392.948 252.459 392.361 252.576V264.06H406.177V252.576C405.561 252.429 404.975 252.268 404.417 252.092C403.889 251.916 403.376 251.711 402.877 251.476V250.2H414.009V251.476C413.481 251.769 412.895 252.004 412.249 252.18C411.633 252.327 411.017 252.459 410.401 252.576V278.668C411.076 278.785 411.721 278.932 412.337 279.108C412.953 279.284 413.511 279.489 414.009 279.724V281H402.877V279.724C403.933 279.255 405.033 278.903 406.177 278.668V266.348H392.361V278.668C392.948 278.785 393.52 278.932 394.077 279.108C394.635 279.284 395.163 279.489 395.661 279.724V281ZM452.445 281H441.269V279.724C441.856 279.431 442.428 279.211 442.985 279.064C443.542 278.917 444.114 278.785 444.701 278.668V252.576C444.144 252.429 443.572 252.283 442.985 252.136C442.428 251.989 441.856 251.769 441.269 251.476V250.2H452.445V251.476C451.477 251.945 450.304 252.312 448.925 252.576V278.668C449.658 278.785 450.304 278.932 450.861 279.108C451.418 279.284 451.946 279.489 452.445 279.724V281ZM417.861 281V279.724C419.005 279.196 420.208 278.844 421.469 278.668V252.576C420.882 252.429 420.281 252.268 419.665 252.092C419.049 251.916 418.448 251.711 417.861 251.476V250.2H429.565V251.476C429.008 251.711 428.406 251.931 427.761 252.136C427.116 252.312 426.426 252.459 425.693 252.576V262.652C426.221 262.593 426.866 262.535 427.629 262.476C428.392 262.388 429.066 262.344 429.653 262.344C431.09 262.344 432.469 262.476 433.789 262.74C435.109 263.004 436.268 263.473 437.265 264.148C438.262 264.823 439.054 265.747 439.641 266.92C440.257 268.093 440.565 269.589 440.565 271.408C440.565 273.139 440.228 274.62 439.553 275.852C438.878 277.055 437.998 278.052 436.913 278.844C435.828 279.636 434.596 280.223 433.217 280.604C431.838 280.956 430.445 281.132 429.037 281.132C428.89 281.132 428.597 281.117 428.157 281.088C427.746 281.088 427.277 281.073 426.749 281.044C426.221 281.044 425.664 281.029 425.077 281C424.49 281 423.977 281 423.537 281H417.861ZM428.685 264.632C427.981 264.632 427.394 264.647 426.925 264.676C426.485 264.676 426.074 264.735 425.693 264.852V278.668C425.84 278.727 426.045 278.771 426.309 278.8C426.602 278.8 426.896 278.815 427.189 278.844C427.512 278.844 427.82 278.844 428.113 278.844C428.406 278.844 428.641 278.844 428.817 278.844C430.87 278.844 432.557 278.228 433.877 276.996C435.197 275.764 435.857 273.887 435.857 271.364C435.857 269.164 435.256 267.492 434.053 266.348C432.85 265.204 431.061 264.632 428.685 264.632ZM477.162 250.2C477.133 251.373 477.074 252.561 476.986 253.764C476.927 254.937 476.825 256.125 476.678 257.328H475.534L473.73 252.488H464.138V264.148H471.31L473.026 260.892H474.126C474.302 263.796 474.302 266.759 474.126 269.78H473.026L471.31 266.436H464.138V278.712H474.258L476.414 273.432H477.514C477.719 274.664 477.866 275.911 477.954 277.172C478.042 278.433 478.057 279.709 477.998 281H456.306V279.724C457.333 279.255 458.535 278.903 459.914 278.668V252.576C459.327 252.459 458.726 252.312 458.11 252.136C457.494 251.931 456.893 251.711 456.306 251.476V250.2H477.162ZM179.309 339H169.541V337.724C170.597 337.255 171.653 336.903 172.709 336.668L183.841 307.672H185.117L196.249 336.668C196.835 336.785 197.407 336.917 197.965 337.064C198.551 337.211 199.094 337.431 199.593 337.724V339H188.329V337.724C188.915 337.489 189.517 337.284 190.133 337.108C190.749 336.932 191.35 336.785 191.937 336.668L188.945 328.616H178.429L175.525 336.668C176.757 336.844 178.018 337.196 179.309 337.724V339ZM179.309 326.328H188.197L184.721 317L183.885 313.216H183.797L182.697 317.088L179.309 326.328ZM213.304 339H202.172V337.724C202.612 337.489 203.125 337.284 203.712 337.108C204.298 336.932 204.988 336.785 205.78 336.668V310.576C205.193 310.459 204.592 310.312 203.976 310.136C203.36 309.931 202.758 309.711 202.172 309.476V308.2H231.212V309.476C230.654 309.769 230.068 310.004 229.452 310.18C228.836 310.327 228.22 310.459 227.604 310.576V336.668C228.777 336.815 229.98 337.167 231.212 337.724V339H220.08V337.724C220.725 337.313 221.825 336.961 223.38 336.668V310.488H210.004V336.668C211.148 336.903 212.248 337.255 213.304 337.724V339ZM243.566 339H233.798V337.724C234.854 337.255 235.91 336.903 236.966 336.668L248.098 307.672H249.374L260.506 336.668C261.092 336.785 261.664 336.917 262.222 337.064C262.808 337.211 263.351 337.431 263.85 337.724V339H252.586V337.724C253.172 337.489 253.774 337.284 254.39 337.108C255.006 336.932 255.607 336.785 256.194 336.668L253.202 328.616H242.686L239.782 336.668C241.014 336.844 242.275 337.196 243.566 337.724V339ZM243.566 326.328H252.454L248.978 317L248.142 313.216H248.054L246.954 317.088L243.566 326.328ZM274.261 336.668C275.053 336.756 275.801 336.903 276.505 337.108C277.209 337.284 277.869 337.489 278.485 337.724V339H266.429V337.724C267.016 337.431 267.617 337.211 268.233 337.064C268.849 336.917 269.45 336.785 270.037 336.668V310.576C269.362 310.459 268.732 310.312 268.145 310.136C267.558 309.931 266.986 309.711 266.429 309.476V308.2H270.389C271.562 308.2 272.838 308.141 274.217 308.024C275.596 307.907 276.916 307.848 278.177 307.848C279.614 307.848 281.022 308.009 282.401 308.332C283.78 308.625 284.997 309.139 286.053 309.872C287.138 310.605 288.004 311.588 288.649 312.82C289.324 314.023 289.661 315.533 289.661 317.352C289.661 319.083 289.324 320.564 288.649 321.796C287.974 323.028 287.065 324.04 285.921 324.832C284.806 325.624 283.53 326.211 282.093 326.592C280.656 326.944 279.174 327.12 277.649 327.12C277.502 327.12 277.268 327.12 276.945 327.12C276.652 327.12 276.329 327.12 275.977 327.12C275.625 327.091 275.288 327.061 274.965 327.032C274.642 327.003 274.408 326.973 274.261 326.944V336.668ZM277.253 310.136C276.549 310.136 275.977 310.151 275.537 310.18C275.097 310.209 274.672 310.268 274.261 310.356V324.612C274.408 324.671 274.613 324.715 274.877 324.744C275.17 324.744 275.464 324.759 275.757 324.788C276.08 324.817 276.388 324.832 276.681 324.832C276.974 324.832 277.209 324.832 277.385 324.832C278.412 324.832 279.38 324.7 280.289 324.436C281.198 324.143 281.99 323.688 282.665 323.072C283.369 322.456 283.926 321.679 284.337 320.74C284.748 319.801 284.953 318.672 284.953 317.352C284.953 314.947 284.264 313.143 282.885 311.94C281.536 310.737 279.658 310.136 277.253 310.136ZM312.484 339H300.12V337.724C300.765 337.489 301.411 337.284 302.056 337.108C302.731 336.932 303.449 336.785 304.212 336.668V310.488H297.48L295.148 316.78H294.048C293.96 316.193 293.887 315.533 293.828 314.8C293.769 314.037 293.711 313.275 293.652 312.512C293.623 311.72 293.593 310.957 293.564 310.224C293.535 309.461 293.52 308.787 293.52 308.2H319.084C319.084 308.787 319.069 309.447 319.04 310.18C319.011 310.913 318.967 311.676 318.908 312.468C318.879 313.231 318.835 313.993 318.776 314.756C318.747 315.489 318.688 316.164 318.6 316.78H317.456L315.168 310.488H308.436V336.668C309.199 336.815 309.903 336.961 310.548 337.108C311.223 337.255 311.868 337.46 312.484 337.724V339ZM327.448 339H317.68V337.724C318.736 337.255 319.792 336.903 320.848 336.668L331.98 307.672H333.256L344.388 336.668C344.974 336.785 345.546 336.917 346.104 337.064C346.69 337.211 347.233 337.431 347.732 337.724V339H336.468V337.724C337.054 337.489 337.656 337.284 338.272 337.108C338.888 336.932 339.489 336.785 340.076 336.668L337.084 328.616H326.568L323.664 336.668C324.896 336.844 326.157 337.196 327.448 337.724V339ZM327.448 326.328H336.336L332.86 317L332.024 313.216H331.936L330.836 317.088L327.448 326.328ZM385.863 339H374.951V337.724C375.538 337.489 376.124 337.299 376.711 337.152C377.298 336.976 377.899 336.815 378.515 336.668V316.868L378.691 311.72H378.339L376.887 316.428L367.867 339H366.723L358.143 316.428L356.559 311.28H356.163L356.207 316.868V336.668C356.764 336.785 357.322 336.932 357.879 337.108C358.436 337.284 358.994 337.489 359.551 337.724V339H350.355V337.724C350.912 337.489 351.484 337.284 352.071 337.108C352.687 336.903 353.303 336.741 353.919 336.624V310.576C353.303 310.459 352.687 310.312 352.071 310.136C351.484 309.931 350.898 309.711 350.311 309.476V308.2H359.331L366.987 328.308L368.483 332.84H368.527L370.023 328.22L377.943 308.2H385.907V309.476C385.379 309.711 384.836 309.931 384.279 310.136C383.722 310.312 383.15 310.459 382.563 310.576V336.712C383.179 336.829 383.751 336.976 384.279 337.152C384.836 337.299 385.364 337.489 385.863 337.724V339ZM410.643 308.2C410.614 309.373 410.555 310.561 410.467 311.764C410.408 312.937 410.306 314.125 410.159 315.328H409.015L407.211 310.488H397.619V322.148H404.791L406.507 318.892H407.607C407.783 321.796 407.783 324.759 407.607 327.78H406.507L404.791 324.436H397.619V336.712H407.739L409.895 331.432H410.995C411.2 332.664 411.347 333.911 411.435 335.172C411.523 336.433 411.538 337.709 411.479 339H389.787V337.724C390.814 337.255 392.016 336.903 393.395 336.668V310.576C392.808 310.459 392.207 310.312 391.591 310.136C390.975 309.931 390.374 309.711 389.787 309.476V308.2H410.643ZM427.848 339H416.716V337.724C417.89 337.255 419.092 336.903 420.324 336.668V310.576C418.946 310.371 417.743 310.004 416.716 309.476V308.2H427.848V309.476C427.35 309.74 426.822 309.96 426.264 310.136C425.707 310.312 425.135 310.459 424.548 310.576V322.06H438.364V310.576C437.748 310.429 437.162 310.268 436.604 310.092C436.076 309.916 435.563 309.711 435.064 309.476V308.2H446.196V309.476C445.668 309.769 445.082 310.004 444.436 310.18C443.82 310.327 443.204 310.459 442.588 310.576V336.668C443.263 336.785 443.908 336.932 444.524 337.108C445.14 337.284 445.698 337.489 446.196 337.724V339H435.064V337.724C436.12 337.255 437.22 336.903 438.364 336.668V324.348H424.548V336.668C425.135 336.785 425.707 336.932 426.264 337.108C426.822 337.284 427.35 337.489 427.848 337.724V339ZM468.572 339H456.208V337.724C456.854 337.489 457.499 337.284 458.144 337.108C458.819 336.932 459.538 336.785 460.3 336.668V310.488H453.568L451.236 316.78H450.136C450.048 316.193 449.975 315.533 449.916 314.8C449.858 314.037 449.799 313.275 449.74 312.512C449.711 311.72 449.682 310.957 449.652 310.224C449.623 309.461 449.608 308.787 449.608 308.2H475.172C475.172 308.787 475.158 309.447 475.128 310.18C475.099 310.913 475.055 311.676 474.996 312.468C474.967 313.231 474.923 313.993 474.864 314.756C474.835 315.489 474.776 316.164 474.688 316.78H473.544L471.256 310.488H464.524V336.668C465.287 336.815 465.991 336.961 466.636 337.108C467.311 337.255 467.956 337.46 468.572 337.724V339ZM513.194 339H502.018V337.724C502.605 337.431 503.177 337.211 503.734 337.064C504.292 336.917 504.864 336.785 505.45 336.668V310.576C504.893 310.429 504.321 310.283 503.734 310.136C503.177 309.989 502.605 309.769 502.018 309.476V308.2H513.194V309.476C512.226 309.945 511.053 310.312 509.674 310.576V336.668C510.408 336.785 511.053 336.932 511.61 337.108C512.168 337.284 512.696 337.489 513.194 337.724V339ZM478.61 339V337.724C479.754 337.196 480.957 336.844 482.218 336.668V310.576C481.632 310.429 481.03 310.268 480.414 310.092C479.798 309.916 479.197 309.711 478.61 309.476V308.2H490.314V309.476C489.757 309.711 489.156 309.931 488.51 310.136C487.865 310.312 487.176 310.459 486.442 310.576V320.652C486.97 320.593 487.616 320.535 488.378 320.476C489.141 320.388 489.816 320.344 490.402 320.344C491.84 320.344 493.218 320.476 494.538 320.74C495.858 321.004 497.017 321.473 498.014 322.148C499.012 322.823 499.804 323.747 500.39 324.92C501.006 326.093 501.314 327.589 501.314 329.408C501.314 331.139 500.977 332.62 500.302 333.852C499.628 335.055 498.748 336.052 497.662 336.844C496.577 337.636 495.345 338.223 493.966 338.604C492.588 338.956 491.194 339.132 489.786 339.132C489.64 339.132 489.346 339.117 488.906 339.088C488.496 339.088 488.026 339.073 487.498 339.044C486.97 339.044 486.413 339.029 485.826 339C485.24 339 484.726 339 484.286 339H478.61ZM489.434 322.632C488.73 322.632 488.144 322.647 487.674 322.676C487.234 322.676 486.824 322.735 486.442 322.852V336.668C486.589 336.727 486.794 336.771 487.058 336.8C487.352 336.8 487.645 336.815 487.938 336.844C488.261 336.844 488.569 336.844 488.862 336.844C489.156 336.844 489.39 336.844 489.566 336.844C491.62 336.844 493.306 336.228 494.626 334.996C495.946 333.764 496.606 331.887 496.606 329.364C496.606 327.164 496.005 325.492 494.802 324.348C493.6 323.204 491.81 322.632 489.434 322.632Z" fill="#373737"/>
<path d="M339.765 410.354C340.364 408.511 342.971 408.511 343.57 410.354L352.781 438.704C353.45 440.764 355.37 442.159 357.536 442.159H387.345C389.282 442.159 390.088 444.638 388.52 445.777L364.405 463.298C362.652 464.571 361.919 466.828 362.588 468.888L371.8 497.237C372.398 499.08 370.289 500.612 368.722 499.473L344.606 481.952C342.854 480.679 340.481 480.679 338.728 481.952L314.613 499.473C313.045 500.612 310.937 499.08 311.535 497.237L320.747 468.888C321.416 466.828 320.683 464.571 318.93 463.298L294.815 445.777C293.247 444.638 294.053 442.159 295.99 442.159H325.799C327.965 442.159 329.885 440.764 330.554 438.704L339.765 410.354Z" fill="url(#paint0_linear_89_155)"/>
<path d="M438.097 427.887C438.694 426.04 441.306 426.04 441.903 427.887L446.907 443.366C447.574 445.43 449.496 446.828 451.665 446.828H467.87C469.805 446.828 470.612 449.302 469.049 450.443L455.909 460.039C454.165 461.312 453.436 463.56 454.1 465.615L459.117 481.134C459.713 482.978 457.6 484.507 456.034 483.364L442.949 473.809C441.192 472.526 438.808 472.526 437.051 473.809L423.966 483.364C422.4 484.507 420.287 482.978 420.883 481.134L425.9 465.615C426.564 463.56 425.835 461.312 424.091 460.039L410.951 450.443C409.388 449.302 410.195 446.828 412.13 446.828H428.335C430.504 446.828 432.426 445.43 433.093 443.366L438.097 427.887Z" fill="url(#paint1_linear_89_155)"/>
<path d="M172.097 427.903C172.692 426.055 175.308 426.055 175.903 427.903L178.548 436.105C179.214 438.17 181.137 439.57 183.307 439.57H191.882C193.816 439.57 194.624 442.042 193.064 443.184L186.08 448.297C184.341 449.57 183.614 451.814 184.275 453.866L186.939 462.128C187.534 463.973 185.419 465.501 183.854 464.355L176.954 459.303C175.195 458.016 172.805 458.016 171.046 459.303L164.146 464.355C162.581 465.501 160.466 463.973 161.061 462.128L163.725 453.866C164.386 451.814 163.659 449.57 161.92 448.297L154.936 443.184C153.376 442.042 154.184 439.57 156.118 439.57H164.693C166.863 439.57 168.786 438.17 169.452 436.105L172.097 427.903Z" fill="url(#paint2_linear_89_155)"/>
<path d="M508.097 427.903C508.692 426.055 511.308 426.055 511.903 427.903L514.548 436.105C515.214 438.17 517.137 439.57 519.307 439.57H527.882C529.816 439.57 530.624 442.042 529.064 443.184L522.08 448.297C520.341 449.57 519.614 451.814 520.275 453.866L522.939 462.128C523.534 463.973 521.419 465.501 519.854 464.355L512.954 459.303C511.195 458.016 508.805 458.016 507.046 459.303L500.146 464.355C498.581 465.501 496.466 463.973 497.061 462.128L499.725 453.866C500.386 451.814 499.659 449.57 497.92 448.297L490.936 443.184C489.376 442.042 490.184 439.57 492.118 439.57H500.693C502.863 439.57 504.786 438.17 505.452 436.105L508.097 427.903Z" fill="url(#paint3_linear_89_155)"/>
<path d="M242.097 427.887C242.694 426.04 245.306 426.04 245.903 427.887L250.907 443.366C251.574 445.43 253.496 446.828 255.665 446.828H271.87C273.805 446.828 274.612 449.302 273.049 450.443L259.909 460.039C258.165 461.312 257.436 463.56 258.1 465.615L263.117 481.134C263.713 482.978 261.6 484.507 260.034 483.364L246.949 473.809C245.192 472.526 242.808 472.526 241.051 473.809L227.966 483.364C226.4 484.507 224.287 482.978 224.883 481.134L229.9 465.615C230.564 463.56 229.835 461.312 228.091 460.039L214.951 450.443C213.388 449.302 214.195 446.828 216.13 446.828H232.335C234.504 446.828 236.426 445.43 237.093 443.366L242.097 427.887Z" fill="url(#paint4_linear_89_155)"/>
<path fill-rule="evenodd" clip-rule="evenodd" d="M346.284 22.3629C350.776 20.7982 354 16.5255 354 11.5C354 5.14873 348.851 0 342.5 0C336.149 0 331 5.14873 331 11.5C331 16.3624 334.018 20.5199 338.282 22.202L305.5 101.5L239.981 70.2393C240.636 68.7942 241 67.1897 241 65.5C241 59.1487 235.851 54 229.5 54C223.149 54 218 59.1487 218 65.5C218 71.8513 223.149 77 229.5 77C230.543 77 231.554 76.861 232.515 76.6006L249 131L262 174.5H342H342.5H422.5L435.5 131L452.026 76.4658C453.122 76.8128 454.289 77 455.5 77C461.851 77 467 71.8513 467 65.5C467 59.1487 461.851 54 455.5 54C449.149 54 444 59.1487 444 65.5C444 67.1133 444.332 68.6489 444.932 70.0423L379 101.5L346.284 22.3629Z" fill="url(#paint5_linear_89_155)"/>
<path d="M335.84 161H316.612V158.796C318.639 157.884 320.716 157.276 322.844 156.972V111.904C321.831 111.651 320.792 111.372 319.728 111.068C318.664 110.764 317.626 110.409 316.612 110.004V107.8H335.84V110.004C335.03 110.409 334.168 110.764 333.256 111.068C332.344 111.372 331.306 111.651 330.14 111.904V144.888L329.304 150.588L332.952 144.584L355.22 113.728V111.904C354.055 111.651 352.94 111.372 351.876 111.068C350.863 110.713 349.926 110.359 349.064 110.004V107.8H368.368V110.004C367.456 110.409 366.468 110.764 365.404 111.068C364.34 111.372 363.251 111.651 362.136 111.904V156.972C364.518 157.377 366.595 157.985 368.368 158.796V161H349.064V158.796C349.875 158.441 350.762 158.112 351.724 157.808C352.687 157.453 353.726 157.175 354.84 156.972V124.064L355.6 118.364L352.256 124.064L329.684 155.3V156.972C330.85 157.175 331.939 157.428 332.952 157.732C334.016 158.036 334.979 158.391 335.84 158.796V161Z" fill="#373737"/>
<defs>
<linearGradient id="paint0_linear_89_155" x1="374" y1="396" x2="331.5" y2="396" gradientUnits="userSpaceOnUse">
<stop stop-color="#F9CC5E"/>
<stop offset="0.543773" stop-color="white"/>
<stop offset="1" stop-color="#F9CC5E"/>
</linearGradient>
<linearGradient id="paint1_linear_89_155" x1="461.209" y1="416.396" x2="433.331" y2="416.396" gradientUnits="userSpaceOnUse">
<stop stop-color="#F9CC5E"/>
<stop offset="0.543773" stop-color="white"/>
<stop offset="1" stop-color="#F9CC5E"/>
</linearGradient>
<linearGradient id="paint2_linear_89_155" x1="188.971" y1="418.034" x2="169.292" y2="418.034" gradientUnits="userSpaceOnUse">
<stop stop-color="#F9CC5E"/>
<stop offset="0.543773" stop-color="white"/>
<stop offset="1" stop-color="#F9CC5E"/>
</linearGradient>
<linearGradient id="paint3_linear_89_155" x1="524.971" y1="418.034" x2="505.292" y2="418.034" gradientUnits="userSpaceOnUse">
<stop stop-color="#F9CC5E"/>
<stop offset="0.543773" stop-color="white"/>
<stop offset="1" stop-color="#F9CC5E"/>
</linearGradient>
<linearGradient id="paint4_linear_89_155" x1="265.209" y1="416.396" x2="237.331" y2="416.396" gradientUnits="userSpaceOnUse">
<stop stop-color="#F9CC5E"/>
<stop offset="0.543773" stop-color="white"/>
<stop offset="1" stop-color="#F9CC5E"/>
</linearGradient>
<linearGradient id="paint5_linear_89_155" x1="302.5" y1="74" x2="442" y2="174" gradientUnits="userSpaceOnUse">
<stop stop-color="#F9CC5E"/>
<stop offset="0.641279" stop-color="white"/>
<stop offset="1" stop-color="#F9CC5E"/>
</linearGradient>
</defs>
</svg>
